<mxfile host="65bd71144e">
    <diagram id="ovH3Y4wv3d0kSPLnYK40" name="Page-1">
        <mxGraphModel dx="1941" dy="790" grid="1" gridSize="10" guides="1" tooltips="1" connect="1" arrows="1" fold="1" page="1" pageScale="1" pageWidth="827" pageHeight="1169" background="#ffffff" math="0" shadow="0">
            <root>
                <mxCell id="0"/>
                <mxCell id="1" parent="0"/>
                <mxCell id="fmvFC2zcxRDmfiOV9h6T-1" value="AWS Cloud" style="points=[[0,0],[0.25,0],[0.5,0],[0.75,0],[1,0],[1,0.25],[1,0.5],[1,0.75],[1,1],[0.75,1],[0.5,1],[0.25,1],[0,1],[0,0.75],[0,0.5],[0,0.25]];outlineConnect=0;gradientColor=none;html=1;whiteSpace=wrap;fontSize=12;fontStyle=0;shape=mxgraph.aws4.group;grIcon=mxgraph.aws4.group_aws_cloud_alt;strokeColor=#232F3E;fillColor=none;verticalAlign=top;align=left;spacingLeft=30;fontColor=#000000;dashed=0;container=1;pointerEvents=0;collapsible=0;recursiveResize=0;" parent="1" vertex="1">
                    <mxGeometry x="-622" y="125.5" width="372" height="414.5" as="geometry"/>
                </mxCell>
                <mxCell id="fmvFC2zcxRDmfiOV9h6T-3" value="eu-west-2" style="points=[[0,0],[0.25,0],[0.5,0],[0.75,0],[1,0],[1,0.25],[1,0.5],[1,0.75],[1,1],[0.75,1],[0.5,1],[0.25,1],[0,1],[0,0.75],[0,0.5],[0,0.25]];outlineConnect=0;gradientColor=none;html=1;whiteSpace=wrap;fontSize=12;fontStyle=0;container=1;pointerEvents=0;collapsible=0;recursiveResize=0;shape=mxgraph.aws4.group;grIcon=mxgraph.aws4.group_region;strokeColor=#147EBA;fillColor=none;verticalAlign=top;align=left;spacingLeft=30;fontColor=#000000;dashed=1;" parent="fmvFC2zcxRDmfiOV9h6T-1" vertex="1">
                    <mxGeometry x="22" y="56.5" width="298" height="183.5" as="geometry"/>
                </mxCell>
                <mxCell id="6" style="edgeStyle=none;html=1;fontColor=#000000;" parent="fmvFC2zcxRDmfiOV9h6T-3" source="2" target="5" edge="1">
                    <mxGeometry relative="1" as="geometry"/>
                </mxCell>
                <mxCell id="2" value="Cloudfront" style="points=[[0,0,0],[0.25,0,0],[0.5,0,0],[0.75,0,0],[1,0,0],[0,1,0],[0.25,1,0],[0.5,1,0],[0.75,1,0],[1,1,0],[0,0.25,0],[0,0.5,0],[0,0.75,0],[1,0.25,0],[1,0.5,0],[1,0.75,0]];outlineConnect=0;fontColor=#000000;gradientColor=#945DF2;gradientDirection=north;fillColor=#5A30B5;strokeColor=#ffffff;dashed=0;verticalLabelPosition=bottom;verticalAlign=top;align=center;html=1;fontSize=12;fontStyle=0;aspect=fixed;shape=mxgraph.aws4.resourceIcon;resIcon=mxgraph.aws4.cloudfront;" parent="fmvFC2zcxRDmfiOV9h6T-3" vertex="1">
                    <mxGeometry x="20" y="68" width="78" height="78" as="geometry"/>
                </mxCell>
                <mxCell id="5" value="S3 Static hosting" style="points=[[0,0,0],[0.25,0,0],[0.5,0,0],[0.75,0,0],[1,0,0],[0,1,0],[0.25,1,0],[0.5,1,0],[0.75,1,0],[1,1,0],[0,0.25,0],[0,0.5,0],[0,0.75,0],[1,0.25,0],[1,0.5,0],[1,0.75,0]];outlineConnect=0;fontColor=#000000;gradientColor=#60A337;gradientDirection=north;fillColor=#277116;strokeColor=#ffffff;dashed=0;verticalLabelPosition=bottom;verticalAlign=top;align=center;html=1;fontSize=12;fontStyle=0;aspect=fixed;shape=mxgraph.aws4.resourceIcon;resIcon=mxgraph.aws4.s3;" parent="fmvFC2zcxRDmfiOV9h6T-3" vertex="1">
                    <mxGeometry x="160" y="68" width="78" height="78" as="geometry"/>
                </mxCell>
                <mxCell id="7" value="Route 53 for DNS" style="points=[[0,0,0],[0.25,0,0],[0.5,0,0],[0.75,0,0],[1,0,0],[0,1,0],[0.25,1,0],[0.5,1,0],[0.75,1,0],[1,1,0],[0,0.25,0],[0,0.5,0],[0,0.75,0],[1,0.25,0],[1,0.5,0],[1,0.75,0]];outlineConnect=0;fontColor=#000000;gradientColor=#945DF2;gradientDirection=north;fillColor=#5A30B5;strokeColor=#ffffff;dashed=0;verticalLabelPosition=bottom;verticalAlign=top;align=center;html=1;fontSize=12;fontStyle=0;aspect=fixed;shape=mxgraph.aws4.resourceIcon;resIcon=mxgraph.aws4.route_53;" parent="fmvFC2zcxRDmfiOV9h6T-1" vertex="1">
                    <mxGeometry x="42" y="274.5" width="78" height="78" as="geometry"/>
                </mxCell>
                <mxCell id="fmvFC2zcxRDmfiOV9h6T-31" value="Static Hosted Scouts Site" style="text;html=1;resizable=0;points=[];autosize=1;align=left;verticalAlign=top;spacingTop=-4;fontSize=30;fontStyle=1;fontColor=#000000;" parent="1" vertex="1">
                    <mxGeometry x="-800" y="48" width="380" height="40" as="geometry"/>
                </mxCell>
                <mxCell id="fmvFC2zcxRDmfiOV9h6T-32" value="" style="line;strokeWidth=2;html=1;fontSize=14;fontColor=#000000;" parent="1" vertex="1">
                    <mxGeometry x="-810" y="98.5" width="550" height="10" as="geometry"/>
                </mxCell>
                <mxCell id="fmvFC2zcxRDmfiOV9h6T-33" style="edgeStyle=orthogonalEdgeStyle;rounded=0;orthogonalLoop=1;jettySize=auto;html=1;fontColor=#000000;" parent="1" source="fmvFC2zcxRDmfiOV9h6T-38" edge="1">
                    <mxGeometry relative="1" as="geometry">
                        <mxPoint x="-579" y="282.9999999999999" as="targetPoint"/>
                    </mxGeometry>
                </mxCell>
                <mxCell id="fmvFC2zcxRDmfiOV9h6T-34" style="edgeStyle=orthogonalEdgeStyle;rounded=0;orthogonalLoop=1;jettySize=auto;html=1;entryX=0;entryY=0.7;entryDx=0;entryDy=0;entryPerimeter=0;fontColor=#000000;" parent="1" source="fmvFC2zcxRDmfiOV9h6T-35" target="fmvFC2zcxRDmfiOV9h6T-38" edge="1">
                    <mxGeometry relative="1" as="geometry"/>
                </mxCell>
                <mxCell id="fmvFC2zcxRDmfiOV9h6T-35" value="User / Browser" style="shape=mxgraph.cisco.computers_and_peripherals.web_browser;html=1;pointerEvents=1;dashed=0;fillColor=#036897;strokeColor=#ffffff;strokeWidth=2;verticalLabelPosition=bottom;verticalAlign=top;align=center;outlineConnect=0;fontColor=#000000;" parent="1" vertex="1">
                    <mxGeometry x="-788" y="257" width="62" height="64" as="geometry"/>
                </mxCell>
                <mxCell id="fmvFC2zcxRDmfiOV9h6T-38" value="Internet" style="outlineConnect=0;dashed=0;verticalLabelPosition=bottom;verticalAlign=top;align=center;html=1;shape=mxgraph.aws3.internet_3;fillColor=#D2D3D3;gradientColor=none;fontColor=#000000;" parent="1" vertex="1">
                    <mxGeometry x="-690" y="266.5" width="50" height="33" as="geometry"/>
                </mxCell>
            </root>
        </mxGraphModel>
    </diagram>
</mxfile>